<svg width="110" height="96" viewBox="0 0 110 96" fill="none" xmlns="http://www.w3.org/2000/svg" aria-hidden="true">
  <path d="M108.53 75.6899L90.8101 94.6899C90.4268 95.1026 89.9627 95.432 89.4465 95.6573C88.9304 95.8827 88.3733 95.9994 87.8101 95.9999H3.81006C3.40943 95.9997 3.01755 95.8827 2.68241 95.6631C2.34728 95.4436 2.08344 95.1311 1.92319 94.7639C1.76294 94.3967 1.71324 93.9908 1.78018 93.5958C1.84712 93.2008 2.02778 92.8338 2.30006 92.5399L20.0001 73.5399C20.3834 73.1273 20.8475 72.7979 21.3637 72.5725C21.8798 72.3472 22.4369 72.2305 23.0001 72.2299H107C107.404 72.2216 107.802 72.333 108.143 72.5502C108.484 72.7674 108.754 73.0806 108.917 73.4504C109.081 73.8203 109.131 74.2303 109.062 74.6288C108.993 75.0273 108.808 75.3965 108.53 75.6899ZM90.8101 37.4199C90.4254 37.0091 89.9609 36.6811 89.4451 36.4558C88.9293 36.2306 88.3729 36.1129 87.8101 36.11H3.81006C3.40943 36.1102 3.01755 36.2272 2.68241 36.4468C2.34728 36.6663 2.08344 36.9788 1.92319 37.346C1.76294 37.7132 1.71324 38.1191 1.78018 38.5141C1.84712 38.9091 2.02778 39.2761 2.30006 39.57L20.0001 58.58C20.3848 58.9908 20.8493 59.3188 21.3651 59.5441C21.8809 59.7693 22.4373 59.887 23.0001 59.8899H107C107.4 59.8878 107.79 59.7693 108.124 59.5491C108.458 59.3288 108.72 59.0162 108.879 58.6494C109.038 58.2826 109.087 57.8774 109.019 57.4833C108.952 57.0892 108.772 56.7232 108.5 56.43L90.8101 37.4199ZM3.81006 23.7699H87.8101C88.3733 23.7694 88.9304 23.6527 89.4465 23.4273C89.9627 23.202 90.4268 22.8726 90.8101 22.4599L108.53 3.45995C108.808 3.16647 108.993 2.79726 109.062 2.39877C109.131 2.00028 109.081 1.59031 108.917 1.22045C108.754 0.850591 108.484 0.537368 108.143 0.320195C107.802 0.103021 107.404 -0.0084012 107 -5.10788e-05H23.0001C22.4369 0.000541762 21.8798 0.117167 21.3637 0.342553C20.8475 0.567938 20.3834 0.897249 20.0001 1.30995L2.30006 20.3099C2.02778 20.6038 1.84712 20.9708 1.78018 21.3658C1.71324 21.7608 1.76294 22.1667 1.92319 22.5339C2.08344 22.9011 2.34728 23.2136 2.68241 23.4331C3.01755 23.6527 3.40943 23.7697 3.81006 23.7699Z" fill="#000f1d"/>
</svg>